# xmcd CD database file
#
# Track frame offsets:
#	150
#	11037
#	26997
#	40867
#	63817
#	74370
#	80065
#	90090
#	103012
#	123702
#	140510
#	150410
#	161965
#	187627
#	203305
#
# Disc length: 2773 seconds
#
# Revision: 0
# Processed by: cddbd v1.5.1PL0 Copyright (c) Steve Scherf et al.
# Submitted via: CDex 1.50beta10
#
DISCID=bd0ad30f
DTITLE=Normand Grégoire - Mammifère frustré
DYEAR=1998
DGENRE=Blues
TTITLE0=Circuit fermé
TTITLE1=Valse du papier perdu
TTITLE2=Bebop d'amour
TTITLE3=L'argent
TTITLE4=J'aime encore
TTITLE5=Pain de sucre fondu
TTITLE6=Nuit blanche blues
TTITLE7=La chansonnier du dimanche
TTITLE8=Y'a personne qui m'attend
TTITLE9=Numéro un
TTITLE10=Prends ma chanson
TTITLE11=Le grand barda
TTITLE12=La lumière
TTITLE13=Mon p'tit jazz
TTITLE14=Mammifère frustré
EXTD=YEAR: 1998
EXTT0=
EXTT1=
EXTT2=
EXTT3=
EXTT4=
EXTT5=
EXTT6=
EXTT7=
EXTT8=
EXTT9=
EXTT10=
EXTT11=
EXTT12=
EXTT13=
EXTT14=
PLAYORDER=
